<svg height="512pt" viewBox="0 0 512 512.24022" width="512pt" xmlns="http://www.w3.org/2000/svg"><path d="m495.054688 256v-42.667969c0-4.710937-3.820313-8.53125-8.535157-8.53125-4.710937 0-8.53125 3.820313-8.53125 8.53125v42.667969h-17.066406v-42.667969c0-4.710937-3.824219-8.53125-8.535156-8.53125-4.710938 0-8.535157 3.820313-8.535157 8.53125v42.667969c-9.417968.007812-17.054687 7.644531-17.066406 17.066406v17.066406c.03125 20.265626 14.285156 37.726563 34.136719 41.804688v43.527344c-.015625 14.132812-11.46875 25.585937-25.601563 25.601562h-34.132812v-371.199218c0-16.496094-13.371094-29.867188-29.867188-29.867188-16.496093 0-29.867187 13.371094-29.867187 29.867188v12.800781h-17.066406v-12.800781c0-16.496094-13.371094-29.867188-29.867188-29.867188-16.496093 0-29.867187 13.371094-29.867187 29.867188v12.800781h-17.066406v-12.800781c0-16.496094-13.371094-29.867188-29.867188-29.867188-16.492188 0-29.867188 13.371094-29.867188 29.867188v12.800781h-17.066406v-12.800781c0-16.496094-13.371094-29.867188-29.863281-29.867188-16.496094 0-29.867187 13.371094-29.867187 29.867188v12.800781h-17.066407v-12.800781c0-16.496094-13.375-29.867188-29.867187-29.867188-16.496094 0-29.867188 13.371094-29.867188 29.867188v29.867187c-18.84375.019531-34.113281 15.289063-34.132812 34.132813v17.066406c.019531 18.84375 15.289062 34.113281 34.132812 34.132812v119.46875c-18.84375.019532-34.113281 15.289063-34.132812 34.132813v51.199219c.019531 18.84375 15.289062 34.113281 34.132812 34.132812v29.867188c.019532 16.484374 13.378906 29.847656 29.867188 29.867187 4.4375-.023437 8.8125-1.050781 12.800781-2.996094v14.792969c-12.105469 13.722656-11.234375 34.546875 1.972656 47.210938 13.203125 12.664062 34.046875 12.664062 47.253907 0 13.203124-12.664063 14.074218-33.488282 1.972656-47.210938v-14.792969c3.984375 1.945313 8.363281 2.972657 12.800781 2.996094 16.484375-.019531 29.84375-13.382813 29.863281-29.867187v-12.800782h17.066406v12.800782c0 16.496093 13.375 29.867187 29.867188 29.867187 16.496094 0 29.867188-13.371094 29.867188-29.867187v-12.800782h17.066406v12.800782c.019531 16.484374 13.382812 29.847656 29.867187 29.867187 4.4375-.023437 8.8125-1.050781 12.800781-2.996094v14.792969c-12.101562 13.722656-11.230468 34.546875 1.972657 47.210938 13.207031 12.664062 34.046875 12.664062 47.253906 0 13.203125-12.664063 14.074219-33.488282 1.972656-47.210938v-14.792969c3.988281 1.945313 8.363281 2.972657 12.800781 2.996094 14.808594-.042969 27.34375-10.941406 29.441407-25.601563h34.558593c23.550782-.027343 42.640626-19.113281 42.667969-42.667968v-43.527344c19.847657-4.078125 34.105469-21.539062 34.132813-41.804688v-17.066406c-.011719-9.421875-7.644532-17.058594-17.066406-17.066406zm-153.601563 188.945312c-5.574219-1.617187-11.492187-1.617187-17.066406 0v-43.878906h17.066406zm0-385.210937v324.265625h-17.066406v-324.265625zm-230.398437 385.210937c-5.574219-1.617187-11.492188-1.617187-17.066407 0v-43.878906h17.066407zm0-385.210937v324.265625h-17.066407v-324.265625zm-93.867188 51.199219v-17.066406c.007812-9.421876 7.644531-17.058594 17.066406-17.066407v51.199219c-9.421875-.007812-17.058594-7.644531-17.066406-17.066406zm0 238.933594v-51.199219c.007812-9.421875 7.644531-17.058594 17.066406-17.066407v85.332032c-9.421875-.007813-17.058594-7.644532-17.066406-17.066406zm46.933594 76.800781c-7.066406-.007813-12.792969-5.734375-12.800782-12.800781v-384c0-7.070313 5.730469-12.800782 12.800782-12.800782 7.066406 0 12.800781 5.730469 12.800781 12.800782v384c-.007813 7.066406-5.734375 12.792968-12.800781 12.800781zm38.398437 68.265625c-9.425781 0-17.066406-7.640625-17.066406-17.066406 0-9.425782 7.640625-17.066407 17.066406-17.066407s17.066407 7.640625 17.066407 17.066407c-.007813 9.421874-7.644532 17.058593-17.066407 17.066406zm51.199219-81.066406c0 7.070312-5.730469 12.800781-12.796875 12.800781-7.070313 0-12.800781-5.730469-12.800781-12.800781v-384c0-7.070313 5.730468-12.800782 12.800781-12.800782 7.066406 0 12.796875 5.730469 12.796875 12.800782zm17.066406-29.867188v-324.265625h17.066406v324.265625zm59.734375 29.867188c0 7.070312-5.730469 12.800781-12.800781 12.800781-7.066406 0-12.796875-5.730469-12.796875-12.800781v-384c0-7.070313 5.730469-12.800782 12.796875-12.800782 7.070312 0 12.800781 5.730469 12.800781 12.800782zm17.066407-29.867188v-324.265625h17.066406v324.265625zm46.933593 42.667969c-7.066406-.007813-12.792969-5.734375-12.800781-12.800781v-384c0-7.070313 5.730469-12.800782 12.800781-12.800782 7.070313 0 12.800781 5.730469 12.800781 12.800782v384c-.007812 7.066406-5.734374 12.792968-12.800781 12.800781zm38.402344 68.265625c-9.425781 0-17.070313-7.640625-17.070313-17.066406 0-9.425782 7.644532-17.066407 17.070313-17.066407s17.066406 7.640625 17.066406 17.066407c-.011719 9.421874-7.644531 17.058593-17.066406 17.066406zm51.199219-81.066406c0 7.070312-5.730469 12.800781-12.800782 12.800781-7.070312 0-12.800781-5.730469-12.800781-12.800781v-384c0-7.070313 5.730469-12.800782 12.800781-12.800782 7.070313 0 12.800782 5.730469 12.800782 12.800782zm110.933594-123.734376c0 14.140626-11.460938 25.601563-25.601563 25.601563-14.136719 0-25.601563-11.460937-25.601563-25.601563v-17.066406h51.203126zm0 0"/></svg>